<?xml version="1.0" encoding="UTF-8"?>
<svg width="30px" height="30px" viewBox="0 0 30 30" version="1.1" xmlns="http://www.w3.org/2000/svg" xmlns:xlink="http://www.w3.org/1999/xlink">
    <!-- Generator: Sketch 49.3 (51167) - http://www.bohemiancoding.com/sketch -->
    <title>Bandcamp-icn@1x</title>
    <desc>Created with Sketch.</desc>
    <defs></defs>
    <g id="Desktop" stroke="none" stroke-width="1" fill="none" fill-rule="evenodd">
        <g id="Home-Concept-1v2-Desktop" transform="translate(-675.000000, -3647.000000)">
            <g id="Footer" transform="translate(0.000000, 3627.000000)">
                <g id="Social-icoms" transform="translate(325.000000, 20.000000)">
                    <g id="Bandcamp-icn_export" transform="translate(350.000000, 0.000000)">
                        <g id="Bandcamp-icn">
                            <rect id="Social-icn-bkgd" x="0" y="0" width="30" height="30"></rect>
                            <g transform="translate(1.111111, 1.111111)" fill="#FFFFFF">
                                <path d="M23.3762533,17.8170736 C21.6955349,17.8170736 20.7723579,16.5832411 20.7723579,14.9521105 C20.7723579,13.2780653 21.6541395,11.9687663 23.4177572,11.9687663 C24.6625488,11.9687663 25.7210341,12.6125922 25.8346951,13.9756022 L24.6541395,13.9756022 L24.6522407,13.975548 C24.5587619,13.2994412 24.0817112,12.9343153 23.4281738,12.9343153 C22.8158149,12.9343153 21.954975,13.2672146 21.954975,14.9521105 C21.954975,15.8750705 22.3490723,16.8517958 23.3762533,16.8517958 C24.0608236,16.8517958 24.5378201,16.379031 24.6522407,15.584923 L25.8346951,15.584923 C25.6168674,17.0229655 24.7559733,17.8170736 23.3762533,17.8170736 M17.9773817,17.8170736 C17.251199,17.8170736 16.4732042,17.6351074 16.1203939,16.9050727 L16.0998318,16.9050727 L16.0998318,17.6674425 L14.9793349,17.6674425 L14.9793349,10.0191678 L10.8450033,17.6507324 L1.97526584,17.6507324 L6.11724718,10.0047906 L14.9793891,10.0047906 L14.9870931,10.0047906 L16.1618978,10.0047906 L16.1618978,12.8376356 L16.1828396,12.8376356 C16.5044542,12.3012316 17.1786621,11.9684408 17.7803874,11.9684408 C19.4710883,11.9684408 20.2909125,13.2994954 20.2909125,14.9201009 C20.2909125,16.4112033 19.5647841,17.8170736 17.9773817,17.8170736 M13.8888943,1.62760417e-05 C6.21826714,1.62760417e-05 5.42534722e-06,6.21827799 5.42534722e-06,13.8889052 C5.42534722e-06,21.5594781 6.21826714,27.7777941 13.8888943,27.7777941 C21.5595215,27.7777941 27.7777832,21.5594781 27.7777832,13.8889052 C27.7777832,6.21827799 21.5595215,1.62760417e-05 13.8888943,1.62760417e-05" id="Fill-2"></path>
                                <path d="M17.6244303,12.9342611 C16.6290419,12.9343696 16.1204156,13.717844 16.1204156,14.8982368 C16.1204156,16.0140137 16.6704373,16.8515788 17.6246474,16.8515788 C18.7036947,16.8515788 19.1082086,15.8640571 19.1082086,14.8982368 C19.107449,13.889719 18.599094,12.9343696 17.6244303,12.9342611" id="Fill-5"></path>
                            </g>
                        </g>
                    </g>
                </g>
            </g>
        </g>
    </g>
</svg>