<?xml version="1.0" encoding="UTF-8"?>
<svg width="30px" height="30px" viewBox="0 0 30 30" version="1.1" xmlns="http://www.w3.org/2000/svg" xmlns:xlink="http://www.w3.org/1999/xlink">
    <!-- Generator: Sketch 49.3 (51167) - http://www.bohemiancoding.com/sketch -->
    <title>Twitter-icn@1x</title>
    <desc>Created with Sketch.</desc>
    <defs></defs>
    <g id="Desktop" stroke="none" stroke-width="1" fill="none" fill-rule="evenodd">
        <g id="Home-Concept-1v2-Desktop" transform="translate(-395.000000, -3647.000000)">
            <g id="Footer" transform="translate(0.000000, 3627.000000)">
                <g id="Social-icoms" transform="translate(325.000000, 20.000000)">
                    <g id="Twitter-icn_export" transform="translate(70.000000, 0.000000)">
                        <g id="Twitter-icn">
                            <rect id="Social-icn-bkgd" x="0" y="0" width="30" height="30"></rect>
                            <path d="M28.1749428,6.97480748 C27.22105,7.40420242 26.1952975,7.69287129 25.117403,7.82322332 C26.2180823,7.15567657 27.0606803,6.09932893 27.4598518,4.83775578 C26.4310321,5.4570407 25.2900414,5.90628163 24.0767528,6.1480418 C23.1070859,5.09981298 21.7229116,4.44444444 20.1919508,4.44444444 C17.2518401,4.44444444 14.8682035,6.86114411 14.8682035,9.83984598 C14.8682035,10.2633773 14.9155257,10.6729263 15.0044739,11.0693949 C10.5802865,10.8443234 6.6564875,8.69554455 4.03098181,5.43178218 C3.57353389,6.22832783 3.30931828,7.15567657 3.30931828,8.14391639 C3.30931828,10.0153025 4.25138057,11.6665787 5.67849539,12.6340704 C4.80654007,12.6061056 3.98453595,12.3634433 3.26637777,11.959758 L3.26637777,12.0269637 C3.26637777,12.7179648 3.39739015,13.3755886 3.63093397,13.9826953 C4.28117603,15.6745655 5.74553517,16.9528273 7.5385207,17.319527 C7.09027432,17.4408581 6.62143402,17.5085149 6.13419064,17.5085149 C5.79198104,17.5085149 5.45897297,17.4742354 5.13253744,17.410187 C5.81169862,19.5535534 7.77732253,21.1141694 10.1066263,21.1570187 C8.28384533,22.6053245 5.98915686,23.4672717 3.49334906,23.4672717 C3.06306758,23.4672717 2.64023498,23.4420132 2.22222222,23.3919472 C4.58044512,24.9227943 7.38034187,25.8158636 10.3844251,25.8158636 C18.7083122,25.8158636 23.8230532,19.88011 25.172174,13.7219912 C25.4109759,12.6336194 25.5345394,11.5375798 25.5345394,10.4654455 C25.5345394,10.2327063 25.5301577,9.99861386 25.5200798,9.76722772 C26.5594155,9.00721672 27.462919,8.05686469 28.1749428,6.97480748" fill="#FFFFFF"></path>
                        </g>
                    </g>
                </g>
            </g>
        </g>
    </g>
</svg>