<?xml version="1.0" encoding="UTF-8"?>
<svg width="30px" height="30px" viewBox="0 0 30 30" version="1.1" xmlns="http://www.w3.org/2000/svg" xmlns:xlink="http://www.w3.org/1999/xlink">
    <!-- Generator: Sketch 49.3 (51167) - http://www.bohemiancoding.com/sketch -->
    <title>Google-plus-icn@1x</title>
    <desc>Created with Sketch.</desc>
    <defs></defs>
    <g id="Desktop" stroke="none" stroke-width="1" fill="none" fill-rule="evenodd">
        <g id="Home-Concept-1v2-Desktop" transform="translate(-465.000000, -3647.000000)">
            <g id="Footer" transform="translate(0.000000, 3627.000000)">
                <g id="Social-icoms" transform="translate(325.000000, 20.000000)">
                    <g id="Google-plus-icn_export" transform="translate(140.000000, 0.000000)">
                        <g id="Google-plus-icn">
                            <rect id="Social-icn-bkgd" x="0" y="0" width="30" height="30"></rect>
                            <g transform="translate(1.111111, 5.555556)" fill="#FFFFFF">
                                <path d="M24.4444444,8.88888889 L27.7777778,8.88888889 L27.7777778,11.1111111 L24.4444444,11.1111111 L24.4444444,14.4444444 L22.2222222,14.4444444 L22.2222222,11.1111111 L18.8888889,11.1111111 L18.8888889,8.88888889 L22.2222222,8.88888889 L22.2222222,5.55555556 L24.4444444,5.55555556 L24.4444444,8.88888889 Z" id="Plus"></path>
                                <path d="M17.3748865,8.36328933 C15.3527388,8.39080308 13.3310293,8.3750165 11.3088817,8.3750165 C10.7313756,8.3750165 10.152555,8.36464246 9.57592522,8.38764576 C9.46594493,8.39125413 9.26920727,8.52656766 9.26920727,8.6050495 C9.24861335,9.80392739 9.25474771,11.0037074 9.25474771,12.2679868 L14.2073663,12.2679868 C14.1416411,12.5160616 14.1008914,12.6946755 14.0443676,12.8683278 C13.2841453,15.1866997 10.9574705,16.3355116 8.46472989,15.9146865 C5.36819307,15.3919252 3.44068981,12.4362266 3.99059129,9.24282728 C4.06902345,8.79133113 4.20617019,8.36374037 4.3840666,7.95960396 C5.4067519,5.64213421 7.94024219,4.23487349 10.4461279,4.79867987 C11.3439351,4.99984598 12.1102919,5.44818482 12.7723645,6.04176018 C13.6728007,5.10719472 14.5478233,4.19924092 15.4802458,3.23039604 C15.4197786,3.18168317 15.3334594,3.11808581 15.2532745,3.04907591 C13.06769,1.14927393 10.5569845,0.451056106 7.74438087,0.925555556 C3.70183824,1.60573157 0.794152039,4.88257426 0.14303364,8.71149615 C-0.134327024,10.3478878 -0.0033146408,12.0853135 0.631153355,13.7636524 C2.16956298,17.830275 6.14243682,20.3078658 10.386537,19.8279538 C12.4581977,19.5925083 14.3090214,18.8225743 15.756292,17.2348955 C17.8888581,14.8975798 18.4365687,12.0686249 18.0969881,8.97174917 C18.0413407,8.45485149 17.8375924,8.3569747 17.3748865,8.36328933" id="Google"></path>
                            </g>
                        </g>
                    </g>
                </g>
            </g>
        </g>
    </g>
</svg>