<?xml version="1.0" encoding="UTF-8"?>
<svg width="30px" height="30px" viewBox="0 0 30 30" version="1.1" xmlns="http://www.w3.org/2000/svg" xmlns:xlink="http://www.w3.org/1999/xlink">
    <!-- Generator: Sketch 49.3 (51167) - http://www.bohemiancoding.com/sketch -->
    <title>Instagram-icn@1x</title>
    <desc>Created with Sketch.</desc>
    <defs></defs>
    <g id="Desktop" stroke="none" stroke-width="1" fill="none" fill-rule="evenodd">
        <g id="Home-Concept-1v2-Desktop" transform="translate(-535.000000, -3647.000000)">
            <g id="Footer" transform="translate(0.000000, 3627.000000)">
                <g id="Social-icoms" transform="translate(325.000000, 20.000000)">
                    <g id="Instagram-icn_export" transform="translate(210.000000, 0.000000)">
                        <g id="Instagram-icn">
                            <rect id="Social-icn-bkgd" x="0" y="0" width="30" height="30"></rect>
                            <path d="M26.1827282,23.5215014 C26.1827282,24.9899819 24.9881717,26.1836206 23.519247,26.1836206 L6.47840793,26.1836206 C5.0104213,26.1836206 3.81680277,24.9899819 3.81680277,23.5215014 L3.81680277,13.5896772 L3.81680277,12.1498066 L7.96327876,12.1498066 C7.85915958,12.4040118 7.77098658,12.6657211 7.69547673,12.9330587 C7.50740559,13.5901462 7.40469343,14.2828788 7.40469343,14.999531 C7.40469343,19.1878192 10.812017,22.5952003 15.0002345,22.5952003 C19.187983,22.5952003 22.5953066,19.1878192 22.5953066,14.999531 C22.5953066,14.2828788 22.4911874,13.5901462 22.3035853,12.9330587 C22.2266684,12.6657211 22.1380264,12.4040118 22.0348452,12.1498066 L26.1827282,12.1498066 L26.1827282,13.5906152 L26.1827282,23.5215014 Z M11.0362016,12.1498066 C11.9263737,10.9181778 13.368565,10.1119441 15.0002345,10.1119441 C16.631435,10.1119441 18.0736263,10.9181778 18.9637984,12.1498066 C19.0712006,12.2984838 19.1673467,12.4551342 19.2578648,12.6160057 C19.6560503,13.3218706 19.8900839,14.1342016 19.8900839,14.999531 C19.8900839,17.694481 17.694201,19.8875869 15.0002345,19.8875869 C12.3034539,19.8875869 10.1103851,17.694481 10.1103851,14.999531 C10.1103851,14.1337326 10.3439497,13.3218706 10.7421352,12.6155367 C10.8326533,12.4551342 10.9292684,12.2984838 11.0362016,12.1498066 Z M25.0603985,4.31353347 L25.6729194,4.30978136 L25.6729194,4.92325067 L25.6729194,9.0177362 L20.9823973,9.03321364 L20.9655131,4.32572781 L25.0603985,4.31353347 Z M23.519247,1.11111111 L6.47840793,1.11111111 C3.51804639,1.11111111 1.11111111,3.51808703 1.11111111,6.47802954 L1.11111111,12.1498066 L1.11111111,14.2373845 L1.11111111,23.5215014 C1.11111111,26.4809749 3.51804639,28.8888889 6.47840793,28.8888889 L23.519247,28.8888889 C26.4796086,28.8888889 28.8888889,26.4809749 28.8888889,23.5215014 L28.8888889,14.2401986 L28.8888889,12.1498066 L28.8888889,6.47802954 C28.8888889,3.51808703 26.4796086,1.11111111 23.519247,1.11111111 Z" fill="#FFFFFF"></path>
                        </g>
                    </g>
                </g>
            </g>
        </g>
    </g>
</svg>