<?xml version="1.0" encoding="UTF-8"?>
<svg width="30px" height="30px" viewBox="0 0 30 30" version="1.1" xmlns="http://www.w3.org/2000/svg" xmlns:xlink="http://www.w3.org/1999/xlink">
    <!-- Generator: Sketch 49.3 (51167) - http://www.bohemiancoding.com/sketch -->
    <title>YouTube-icn@1x</title>
    <desc>Created with Sketch.</desc>
    <defs></defs>
    <g id="Desktop" stroke="none" stroke-width="1" fill="none" fill-rule="evenodd">
        <g id="Home-Concept-1v2-Desktop" transform="translate(-605.000000, -3647.000000)">
            <g id="Footer" transform="translate(0.000000, 3627.000000)">
                <g id="Social-icoms" transform="translate(325.000000, 20.000000)">
                    <g id="YouTube-icn_export" transform="translate(280.000000, 0.000000)">
                        <g id="YouTube-icn">
                            <rect id="Social-icn-bkgd" x="0" y="0" width="30" height="30"></rect>
                            <g transform="translate(2.222222, 5.555556)" fill="#FFFFFF">
                                <path d="M16.6666667,9.45901293 L10.0016667,13.3333333 L10,7.36877157 L10,5.55555556 L13.0058333,7.31542851 L16.6666667,9.45901293 Z M25.298822,4.31340947 C25.298822,4.31340947 25.0498553,2.35218272 24.2844011,1.48968502 C23.3122656,0.35826119 22.2231978,0.35135384 21.7256957,0.285503776 C18.14696,0 12.7840343,0 12.7840343,0 L12.7723842,0 C12.7723842,0 7.40643813,0 3.83158582,0.287345736 C3.33192632,0.35135384 2.2445844,0.35826119 1.27029151,1.49014551 C0.506131775,2.3531037 0.256302024,4.31433045 0.256302024,4.31433045 C0.256302024,4.31433045 -2.77555756e-17,6.6144778 -2.77555756e-17,8.91646712 L-2.77555756e-17,9.19368208 L-2.77555756e-17,11.0724811 C-2.77555756e-17,13.3758519 0.256302024,15.6769202 0.256302024,15.6769202 C0.256302024,15.6769202 0.506131775,17.6367655 1.27029151,18.4992632 C2.2445844,19.6320685 3.52264264,19.5961503 4.0891823,19.7135752 C6.13442068,19.931387 12.7779935,20 12.7779935,20 C12.7779935,20 18.14696,19.9894087 21.7256957,19.7034445 C22.2231978,19.6371339 23.3122656,19.6320685 24.2844011,18.4978817 C25.0498553,17.6358445 25.298822,15.6759993 25.298822,15.6759993 C25.298822,15.6759993 25.5555556,13.3758519 25.5555556,11.0724811 L25.5555556,9.31340947 L25.5555556,8.91646712 C25.5555556,6.6144778 25.298822,4.31340947 25.298822,4.31340947 Z"></path>
                            </g>
                        </g>
                    </g>
                </g>
            </g>
        </g>
    </g>
</svg>